<?xml version="1.0" encoding="UTF-8" standalone="no"?>
<!-- Created with Inkscape (http://www.inkscape.org/) -->

<svg
   width="32.053093mm"
   height="32.053093mm"
   viewBox="0 0 32.053093 32.053093"
   version="1.1"
   id="svg1"
   sodipodi:docname="mpp2jira.svg"
   inkscape:version="1.3 (0e150ed6c4, 2023-07-21)"
   xmlns:inkscape="http://www.inkscape.org/namespaces/inkscape"
   xmlns:sodipodi="http://sodipodi.sourceforge.net/DTD/sodipodi-0.dtd"
   xmlns:xlink="http://www.w3.org/1999/xlink"
   xmlns="http://www.w3.org/2000/svg"
   xmlns:svg="http://www.w3.org/2000/svg">
  <sodipodi:namedview
     id="namedview1"
     pagecolor="#ffffff"
     bordercolor="#000000"
     borderopacity="0.25"
     inkscape:showpageshadow="2"
     inkscape:pageopacity="0.0"
     inkscape:pagecheckerboard="0"
     inkscape:deskcolor="#d1d1d1"
     inkscape:document-units="mm"
     inkscape:zoom="2.9255612"
     inkscape:cx="134.50411"
     inkscape:cy="79.813747"
     inkscape:window-width="1920"
     inkscape:window-height="1017"
     inkscape:window-x="3832"
     inkscape:window-y="-8"
     inkscape:window-maximized="1"
     inkscape:current-layer="layer2" />
  <defs
     id="defs1">
    <linearGradient
       id="c"
       x1="134.11188"
       x2="73.809822"
       xlink:href="#a"
       y1="123.45566"
       y2="182.43744"
       gradientTransform="matrix(0.12590834,0,0,0.12517052,82.552218,79.935086)"
       gradientUnits="userSpaceOnUse" />
    <linearGradient
       id="a">
      <stop
         offset=".18"
         stop-color="#0052cc"
         id="stop1" />
      <stop
         offset="1"
         stop-color="#2684ff"
         id="stop2" />
    </linearGradient>
    <linearGradient
       id="b"
       x1="191.29582"
       x2="139.1474"
       xlink:href="#a"
       y1="61.656551"
       y2="115.75273"
       gradientTransform="matrix(0.12590787,0,0,0.12517099,82.552218,79.935086)"
       gradientUnits="userSpaceOnUse" />
  </defs>
  <g
     inkscape:label="Layer 1"
     inkscape:groupmode="layer"
     id="layer1"
     transform="translate(-82.552218,-79.935086)" />
  <g
     inkscape:groupmode="layer"
     id="layer2"
     inkscape:label="Layer 2"
     transform="translate(-82.552218,-79.935086)">
    <path
       d="M 113.26631,79.935086 H 97.831178 a 6.9676587,6.9676587 0 0 0 6.967662,6.96766 h 2.84333 v 2.74528 c 0.003,3.84463 3.11851,6.96076 6.96314,6.96327 v -15.33721 c 0,-0.7393 -0.59932,-1.339 -1.339,-1.339 z"
       fill="#2684ff"
       id="path2-4"
       style="stroke-width:0.125539" />
    <path
       d="M 105.62903,87.625846 H 90.194018 c 0.002,3.84463 3.11839,6.96076 6.96314,6.96327 h 2.843332 v 2.754072 c 0.005,3.844632 3.12303,6.958622 6.96766,6.958622 V 88.965096 c 0,-0.73955 -0.59957,-1.33912 -1.33912,-1.33912 z"
       fill="url(#b)"
       id="path3-0"
       style="fill:url(#b);stroke-width:0.125539" />
    <path
       d="m 97.987348,95.312216 h -15.43513 c 0,3.848152 3.11964,6.967664 6.96766,6.967664 h 2.85224 v 2.74516 c 0.003,3.84111 3.11312,6.95586 6.95435,6.96314 V 96.651346 c 0,-0.73955 -0.59957,-1.33913 -1.33912,-1.33913 z"
       fill="url(#c)"
       id="path4-1"
       style="fill:url(#c);stroke-width:0.125539" />
    <g
       id="g1"
       transform="matrix(1.228233,0,0,1.2554036,-67.135745,-28.537753)">
      <path
         fill="#31752f"
         d="M 128.20282,107.4867 H 141.517 c 0.91913,0 1.66427,-0.74513 1.66427,-1.66427 V 92.508259 c 0,-0.919135 -0.74514,-1.664272 -1.66427,-1.664272 h -13.31418 c -0.91913,0 -1.66427,0.745137 -1.66427,1.664272 v 13.314171 c 0,0.91914 0.74514,1.66427 1.66427,1.66427 z"
         id="path5"
         style="fill:#0052cc;fill-opacity:1;stroke-width:0.416067" />
      <path
         d="m 135.36002,94.082091 c 1.22965,0 2.17171,0.275687 2.8249,0.825853 0.6536,0.550541 0.98042,1.347935 0.98042,2.391683 0,0.670243 -0.16177,1.266219 -0.48485,1.787885 -0.32307,0.522079 -0.78279,0.927788 -1.37859,1.217498 -0.59585,0.28929 -1.28661,0.43417 -2.07148,0.43417 h -1.89044 v 3.74461 h -2.07993 V 94.082091 Z m -2.02,4.992814 h 1.65037 c 0.64341,0 1.12937,-0.145255 1.45836,-0.434916 0.32857,-0.290083 0.49267,-0.713557 0.49267,-1.270505 0,-1.081942 -0.62964,-1.623122 -1.88962,-1.623122 h -1.71178 z"
         id="path6"
         style="fill:#ffffff;fill-opacity:1;stroke-width:0.416067" />
    </g>
  </g>
</svg>
